<?xml version="1.0" encoding="utf-8"?>
<svg id="svg" version="1.1" width="400" height="400" viewBox="0, 0, 400,400" xmlns="http://www.w3.org/2000/svg">
  <g id="svgg" style="" transform="matrix(2.24105, 0, 0, 2.233629, -248.22345, -246.725815)">
    <path id="path0" d="M124.400 138.000 L 124.400 149.200 146.200 149.200 L 168.000 149.200 168.000 138.000 L 168.000 126.800 146.200 126.800 L 124.400 126.800 124.400 138.000 M232.000 138.000 L 232.000 149.200 253.800 149.200 L 275.600 149.200 275.600 138.000 L 275.600 126.800 253.800 126.800 L 232.000 126.800 232.000 138.000 M124.400 179.400 L 124.400 190.800 156.200 190.800 L 188.000 190.800 188.000 179.400 L 188.000 168.000 156.200 168.000 L 124.400 168.000 124.400 179.400 M212.000 179.400 L 212.000 190.800 243.800 190.800 L 275.600 190.800 275.600 179.400 L 275.600 168.000 243.800 168.000 L 212.000 168.000 212.000 179.400 M124.671 209.462 C 124.522 209.611,124.400 214.743,124.400 220.867 L 124.400 232.000 140.006 232.000 L 155.612 232.000 155.506 220.700 L 155.400 209.400 140.171 209.295 C 131.796 209.238,124.821 209.313,124.671 209.462 M184.094 209.483 L 183.187 209.657 183.294 220.729 L 183.400 231.800 200.000 231.800 L 216.600 231.800 216.706 220.748 L 216.812 209.697 215.906 209.454 C 214.894 209.182,185.517 209.210,184.094 209.483 M244.671 209.462 C 244.522 209.611,244.400 214.743,244.400 220.867 L 244.400 232.000 260.006 232.000 L 275.612 232.000 275.506 220.700 L 275.400 209.400 260.171 209.295 C 251.796 209.238,244.821 209.313,244.671 209.462 M124.400 262.000 L 124.400 273.200 155.000 273.200 L 185.600 273.200 185.600 262.000 L 185.600 250.800 155.000 250.800 L 124.400 250.800 124.400 262.000 M214.400 262.000 L 214.400 273.200 245.000 273.200 L 275.600 273.200 275.600 262.000 L 275.600 250.800 245.000 250.800 L 214.400 250.800 214.400 262.000 " stroke="none" fill="#14dc94" fill-rule="evenodd"/>
    <path id="path1" d="" stroke="none" fill="#18dc94" fill-rule="evenodd"/>
    <path id="path2" d="" stroke="none" fill="#18dc94" fill-rule="evenodd"/>
    <path id="path3" d="" stroke="none" fill="#18dc94" fill-rule="evenodd"/>
    <path id="path4" d="" stroke="none" fill="#18dc94" fill-rule="evenodd"/>
    <path id="path5" d="" stroke="none" fill="#18dc94" fill-rule="evenodd"/>
    <path id="path6" d="" stroke="none" fill="#18dc94" fill-rule="evenodd"/>
    <path id="path7" d="" stroke="none" fill="#18dc94" fill-rule="evenodd"/>
    <path id="path8" d="" stroke="none" fill="#18dc94" fill-rule="evenodd"/>
  </g>
</svg>